<?xml version="1.0" encoding="utf-8"?>
<!-- Generator: Adobe Illustrator 22.0.0, SVG Export Plug-In . SVG Version: 6.00 Build 0)  -->
<svg version="1.1" id="图层_1" xmlns="http://www.w3.org/2000/svg" xmlns:xlink="http://www.w3.org/1999/xlink" x="0px" y="0px"
	 viewBox="0 0 528.4 200" style="enable-background:new 0 0 528.4 200;" xml:space="preserve">
<style type="text/css">
	.st0{fill:#777878;}
	.st1{fill:#E95263;}
	.st2{opacity:0.2;}
	.st3{fill:#FFFFFF;}
	.st4{fill:#FBE2E3;}
	.st5{fill:#EEA7AD;}
	.st6{fill:#EFEEEE;}
	.st7{fill:#323333;}
</style>
<g>
	<path class="st0" d="M269.1,186.5l-1.9-5.8h-8l-1.9,5.8h-3.5l7.3-21.4h4.3l7.3,21.4H269.1z M263.3,168.3h-0.2l-3.1,9.4h6.3
		L263.3,168.3z"/>
	<path class="st0" d="M300.3,168.2v18.3h-3.5v-18.3h-6.4v-3.1h16.2v3.1H300.3z"/>
	<path class="st0" d="M328.4,186.5v-21.4h13.7v3.1h-10.2v5.7h9.3v3.1h-9.3v6.5h10.2v3.1H328.4z"/>
	<path class="st0" d="M364.9,186.5v-21.4h3.5v18.3h8.7v3.1H364.9z"/>
	<path class="st0" d="M398.1,186.5v-2.8h2.9V168h-2.9v-2.8h9.3v2.8h-2.9v15.7h2.9v2.8H398.1z"/>
	<path class="st0" d="M430.1,186.5v-21.4h13.7v3.1h-10.2v5.7h9.3v3.1h-9.3v6.5h10.2v3.1H430.1z"/>
	<path class="st0" d="M470.1,186.5h-3.5v-21.4h9.2c3.8,0,6.2,2.5,6.2,6.4c0,3-1.4,5.1-4.2,5.9l4.6,9h-3.9l-4.3-8.6h-4.3V186.5z
		 M475.6,175c1.7,0,2.8-0.9,2.8-2.7v-1.5c0-1.7-1-2.7-2.8-2.7h-5.5v6.8H475.6z"/>
	<path class="st0" d="M510.8,174.7l-2.4-4.5h-0.1v16.3H505v-21.4h3.9l7,11.8l2.4,4.5h0.1v-16.3h3.3v21.4h-3.9L510.8,174.7z"/>
</g>
<path class="st1" d="M168.1,200H31.9C14.4,200,0,185.6,0,168.1V31.9C0,14.4,14.4,0,31.9,0h136.2C185.6,0,200,14.4,200,31.9v136.2
	C200,185.6,185.6,200,168.1,200z"/>
<g>
	<g class="st2">
		<path class="st3" d="M156.6,86c-7.8,0-14.1,6.3-14.1,14.1c0,7.8,6.3,14.1,14.1,14.1c7.8,0,14.1-6.3,14.1-14.1
			C170.7,92.3,164.4,86,156.6,86z"/>
		<path class="st3" d="M101.2,84c0,0,0.1,0,0.1,0c14.5,0,26.2-11.7,26.2-26.2c0-0.9,0-1.8-0.1-2.6c-0.1-0.7-0.2-1.4-0.3-2.1
			c0-0.1,0-0.3-0.1-0.4c-0.3-1.7-0.8-3.2-1.4-4.8c0,0,0,0,0,0l0,0c-3.9-9.5-13.3-16.3-24.2-16.3c-19.6,0-37.3,8.2-49.8,21.4
			c0.1-0.1,0.2-0.2,0.3-0.2c-0.3,0.2-0.6,0.5-0.8,0.8c-11.3,12.2-18.2,28.6-18.2,46.5c0,0,0,0,0,0c0,0,0,0,0,0c0,1.1,0,2.1,0.1,3.2
			c0.8,16.7,7.5,31.8,18.1,43.2c0,0,0.1,0.1,0.1,0.1c0.3,0.4,0.6,0.7,1,1c12.5,12.9,30,21,49.4,21c14.5,0,26.2-11.7,26.2-26.2
			s-11.7-26.2-26.2-26.2c0,0-0.1,0-0.1,0c-13.5,0-25.4-6.4-33.2-16.2C75.8,90.3,87.8,84,101.2,84z M66.1,97.5
			c0.2,0.3,0.4,0.5,0.6,0.8c-0.2-0.3-0.5-0.6-0.7-1C66.1,97.4,66.1,97.4,66.1,97.5z M64.2,94.3c-0.2-0.4-0.4-0.8-0.6-1.1
			c0,0.1,0.1,0.2,0.1,0.2C63.9,93.7,64.1,94,64.2,94.3z M62.5,90.9c-0.2-0.3-0.3-0.7-0.4-1c0.1,0.2,0.2,0.3,0.2,0.5
			C62.4,90.5,62.5,90.7,62.5,90.9z M62,89.5c0-0.1,0-0.1-0.1-0.2C61.9,89.4,61.9,89.4,62,89.5C62,89.5,62,89.5,62,89.5z M62.1,57.3
			L62.1,57.3c0,0.3,0,0.6-0.1,0.8C62.1,57.9,62.1,57.6,62.1,57.3z M61.1,87.3c-0.2-0.5-0.3-1.1-0.5-1.6C60.8,86.2,61,86.7,61.1,87.3
			z M52.3,52.4c0.2-0.2,0.4-0.3,0.7-0.4C52.7,52.1,52.5,52.3,52.3,52.4z M54.2,51.4c-0.3,0.1-0.5,0.2-0.8,0.3
			C53.6,51.6,53.9,51.5,54.2,51.4z M54.6,51.3c0.4-0.1,0.9-0.2,1.3-0.2C55.5,51.1,55,51.2,54.6,51.3z M60.1,83.4
			c-0.1-0.5-0.2-1-0.3-1.5C59.8,82.4,60,82.9,60.1,83.4z M59.3,79.3c-0.1-0.4-0.1-0.9-0.2-1.3C59.2,78.4,59.3,78.8,59.3,79.3z"/>
	</g>
	<circle class="st3" cx="150.4" cy="98.4" r="13.8"/>
	<path class="st4" d="M96.4,165.4c-37,0-67-30-67-67c0-17.6,6.8-33.5,17.8-45.5c1.3-1.5,2.8-2.4,4.8-2.4c3.3,0,5.9,2.7,6,6
		c0,1.1-0.4,2.1-1,3.3l0,0c0,0,0,0,0,0C55.8,64,55,68.3,55,72.8c0,22.8,18.5,41.3,41.3,41.4c0,0,0.1,0,0.1,0
		c14.1,0,25.6,11.5,25.6,25.6C122,154,110.6,165.4,96.4,165.4z"/>
	<g>
		<path class="st3" d="M34.5,73c0.2-0.5,0.4-1,0.7-1.5C34.9,72,34.7,72.5,34.5,73z"/>
		<path class="st3" d="M33.3,76c0.2-0.5,0.4-1,0.6-1.5C33.7,75,33.5,75.5,33.3,76z"/>
		<path class="st3" d="M31.5,82.1c0.1-0.4,0.2-0.9,0.4-1.3C31.7,81.2,31.6,81.6,31.5,82.1z"/>
		<path class="st3" d="M32.3,79c0.1-0.5,0.3-0.9,0.5-1.4C32.6,78,32.5,78.5,32.3,79z"/>
		<path class="st3" d="M30.8,85.2c0.1-0.4,0.2-0.8,0.3-1.3C30.9,84.4,30.8,84.8,30.8,85.2z"/>
		<path class="st3" d="M29.8,91.7c0-0.3,0.1-0.7,0.1-1C29.9,91.1,29.8,91.4,29.8,91.7z"/>
		<path class="st3" d="M30.2,88.4c0.1-0.4,0.1-0.8,0.2-1.1C30.3,87.7,30.3,88.1,30.2,88.4z"/>
		<path class="st4" d="M52.1,50.6c3.3,0,5.9,2.7,6,6c0,1.1-0.4,2.1-1,3.3C55.8,64,55,68.3,55,72.8c0,9.7,3.3,18.5,8.9,25.6
			c7.6-9.6,19.3-15.8,32.4-15.8c0,0,0.1,0,0.1,0c14.1,0,25.6-11.5,25.6-25.6c0-14.1-11.5-25.6-25.6-25.6c-19.2,0-36.4,8.1-48.6,20.9
			C49,51.2,50.4,50.6,52.1,50.6z"/>
		<path class="st3" d="M41.9,59.5c0.4-0.6,0.8-1.2,1.3-1.7C42.8,58.4,42.3,59,41.9,59.5z"/>
		<path class="st3" d="M43.7,57.1c0.5-0.6,0.9-1.2,1.4-1.7C44.7,55.9,44.2,56.5,43.7,57.1z"/>
		<path class="st3" d="M45.7,54.8c0.5-0.6,1-1.2,1.5-1.7C46.7,53.6,46.2,54.2,45.7,54.8z"/>
		<path class="st3" d="M29.5,95.1c0-0.2,0-0.5,0.1-0.7C29.6,94.6,29.5,94.8,29.5,95.1z"/>
		<path class="st3" d="M37.1,67.4c0.3-0.6,0.6-1.1,0.9-1.6C37.7,66.3,37.4,66.8,37.1,67.4z"/>
		<path class="st3" d="M40.2,62.1c0.4-0.6,0.8-1.1,1.1-1.7C40.9,60.9,40.6,61.5,40.2,62.1z"/>
		<path class="st3" d="M35.7,70.2c0.3-0.5,0.5-1.1,0.8-1.6C36.2,69.1,36,69.6,35.7,70.2z"/>
		<path class="st3" d="M38.6,64.7c0.3-0.6,0.7-1.1,1-1.7C39.3,63.6,38.9,64.1,38.6,64.7z"/>
		<path class="st3" d="M29.4,98.4C29.4,98.4,29.4,98.4,29.4,98.4c0,1.1,0,2.3,0.1,3.4C29.5,100.7,29.4,99.6,29.4,98.4z"/>
		<path class="st3" d="M38.6,132.2c-0.2-0.3-0.4-0.7-0.6-1C38.2,131.5,38.4,131.8,38.6,132.2z"/>
		<path class="st3" d="M40.2,134.8c-0.2-0.3-0.4-0.6-0.6-0.9C39.8,134.2,40,134.5,40.2,134.8z"/>
		<path class="st3" d="M37.1,129.5c-0.2-0.4-0.4-0.8-0.6-1.2C36.7,128.7,36.9,129.1,37.1,129.5z"/>
		<path class="st3" d="M47.2,143.8C47.2,143.9,47.2,143.9,47.2,143.8c0.4,0.5,0.7,0.8,1,1.1C47.9,144.5,47.5,144.2,47.2,143.8z"/>
		<path class="st3" d="M45.7,142.1c-0.2-0.2-0.4-0.4-0.5-0.6C45.3,141.7,45.5,141.9,45.7,142.1z"/>
		<path class="st3" d="M43.7,139.8c-0.2-0.2-0.4-0.5-0.6-0.7C43.4,139.3,43.6,139.5,43.7,139.8z"/>
		<path class="st3" d="M35.7,126.7c-0.2-0.4-0.4-0.9-0.6-1.3C35.3,125.8,35.5,126.3,35.7,126.7z"/>
		<path class="st3" d="M41.9,137.3c-0.2-0.3-0.4-0.5-0.6-0.8C41.5,136.8,41.7,137.1,41.9,137.3z"/>
		<path class="st3" d="M30.2,108.4c-0.1-0.8-0.2-1.5-0.3-2.3C30,106.9,30.1,107.7,30.2,108.4z"/>
		<path class="st3" d="M30.8,111.6c-0.1-0.7-0.3-1.4-0.4-2.1C30.5,110.3,30.6,111,30.8,111.6z"/>
		<path class="st3" d="M29.8,105.2c-0.1-0.9-0.1-1.7-0.2-2.6C29.6,103.4,29.7,104.3,29.8,105.2z"/>
		<path class="st3" d="M34.5,123.8c-0.2-0.5-0.4-1-0.6-1.5C34.1,122.9,34.3,123.4,34.5,123.8z"/>
		<path class="st3" d="M31.5,114.8c-0.2-0.6-0.3-1.3-0.4-1.9C31.2,113.5,31.3,114.2,31.5,114.8z"/>
		<path class="st3" d="M33.3,120.9c-0.2-0.5-0.4-1.1-0.5-1.6C33,119.8,33.1,120.4,33.3,120.9z"/>
		<path class="st3" d="M32.3,117.9c-0.2-0.6-0.3-1.2-0.5-1.7C32,116.7,32.2,117.3,32.3,117.9z"/>
	</g>
	<path class="st5" d="M63.9,98.4c7.6-9.6,19.3-15.8,32.4-15.8c0,0,0.1,0,0.1,0c14.1,0,25.6-11.5,25.6-25.6c0-3.4-0.7-6.7-1.9-9.7
		c-0.2,0-0.4,0-0.5,0c-27.7,0-51.4,16.8-61.6,40.7C59.4,91.8,61.4,95.3,63.9,98.4z"/>
	<circle class="st3" cx="150.2" cy="98.3" r="13.8"/>
	<path class="st3" d="M96.3,165.3c-37,0-67-30-67-67c0-17.6,6.8-33.5,17.8-45.5c1.3-1.5,2.8-2.4,4.8-2.4c3.3,0,5.9,2.7,6,6
		c0,1.1-0.4,2.1-1,3.3l0,0c0,0,0,0,0,0c-1.3,4.1-2.1,8.4-2.1,12.9c0,22.8,18.5,41.3,41.3,41.4c0,0,0.1,0,0.1,0
		c14.1,0,25.6,11.5,25.6,25.6S110.4,165.3,96.3,165.3z"/>
	<g>
		<path class="st3" d="M34.3,72.9c0.2-0.5,0.4-1,0.7-1.5C34.7,71.9,34.5,72.4,34.3,72.9z"/>
		<path class="st3" d="M33.2,75.8c0.2-0.5,0.4-1,0.6-1.5C33.5,74.8,33.3,75.3,33.2,75.8z"/>
		<path class="st3" d="M31.3,81.9c0.1-0.4,0.2-0.9,0.4-1.3C31.6,81,31.4,81.5,31.3,81.9z"/>
		<path class="st3" d="M32.2,78.8c0.1-0.5,0.3-0.9,0.5-1.4C32.5,77.9,32.3,78.4,32.2,78.8z"/>
		<path class="st3" d="M30.6,85.1c0.1-0.4,0.2-0.8,0.3-1.3C30.8,84.3,30.7,84.7,30.6,85.1z"/>
		<path class="st3" d="M29.6,91.6c0-0.3,0.1-0.7,0.1-1C29.7,90.9,29.7,91.3,29.6,91.6z"/>
		<path class="st3" d="M30,88.3c0.1-0.4,0.1-0.8,0.2-1.1C30.2,87.5,30.1,87.9,30,88.3z"/>
		<path class="st3" d="M51.9,50.4c3.3,0,5.9,2.7,6,6c0,1.1-0.4,2.1-1,3.3c-1.3,4.1-2.1,8.4-2.1,12.9c0,9.7,3.3,18.5,8.9,25.6
			c7.6-9.6,19.3-15.8,32.4-15.8c0,0,0.1,0,0.1,0c14.1,0,25.6-11.5,25.6-25.6c0-14.1-11.5-25.6-25.6-25.6c-19.2,0-36.4,8.1-48.6,20.9
			C48.8,51.1,50.2,50.4,51.9,50.4z"/>
		<path class="st3" d="M41.8,59.4c0.4-0.6,0.8-1.2,1.3-1.7C42.6,58.3,42.2,58.8,41.8,59.4z"/>
		<path class="st3" d="M43.6,57c0.5-0.6,0.9-1.2,1.4-1.7C44.5,55.8,44,56.4,43.6,57z"/>
		<path class="st3" d="M45.5,54.6c0.5-0.6,1-1.2,1.5-1.7C46.5,53.5,46,54.1,45.5,54.6z"/>
		<path class="st3" d="M29.4,94.9c0-0.2,0-0.5,0.1-0.7C29.4,94.4,29.4,94.7,29.4,94.9z"/>
		<path class="st3" d="M36.9,67.3c0.3-0.6,0.6-1.1,0.9-1.6C37.5,66.1,37.2,66.7,36.9,67.3z"/>
		<path class="st3" d="M40,61.9c0.4-0.6,0.8-1.1,1.1-1.7C40.8,60.8,40.4,61.4,40,61.9z"/>
		<path class="st3" d="M35.6,70c0.3-0.5,0.5-1.1,0.8-1.6C36.1,69,35.8,69.5,35.6,70z"/>
		<path class="st3" d="M38.4,64.6c0.3-0.6,0.7-1.1,1-1.7C39.1,63.4,38.8,64,38.4,64.6z"/>
		<path class="st3" d="M29.3,98.3C29.3,98.3,29.3,98.3,29.3,98.3c0,1.1,0,2.3,0.1,3.4C29.3,100.6,29.3,99.4,29.3,98.3z"/>
		<path class="st3" d="M38.4,132.1c-0.2-0.3-0.4-0.7-0.6-1C38,131.4,38.2,131.7,38.4,132.1z"/>
		<path class="st3" d="M40,134.7c-0.2-0.3-0.4-0.6-0.6-0.9C39.6,134,39.8,134.4,40,134.7z"/>
		<path class="st3" d="M36.9,129.4c-0.2-0.4-0.4-0.8-0.6-1.2C36.5,128.6,36.7,129,36.9,129.4z"/>
		<path class="st3" d="M47,143.7C47.1,143.7,47.1,143.8,47,143.7c0.4,0.5,0.7,0.8,1,1.1C47.7,144.4,47.4,144.1,47,143.7z"/>
		<path class="st3" d="M45.5,142c-0.2-0.2-0.4-0.4-0.5-0.6C45.2,141.6,45.3,141.8,45.5,142z"/>
		<path class="st3" d="M43.6,139.6c-0.2-0.2-0.4-0.5-0.6-0.7C43.2,139.2,43.4,139.4,43.6,139.6z"/>
		<path class="st3" d="M35.6,126.6c-0.2-0.4-0.4-0.9-0.6-1.3C35.2,125.7,35.3,126.1,35.6,126.6z"/>
		<path class="st3" d="M41.8,137.2c-0.2-0.3-0.4-0.5-0.6-0.8C41.4,136.6,41.6,136.9,41.8,137.2z"/>
		<path class="st3" d="M30,108.3c-0.1-0.8-0.2-1.5-0.3-2.3C29.8,106.8,29.9,107.5,30,108.3z"/>
		<path class="st3" d="M30.6,111.5c-0.1-0.7-0.3-1.4-0.4-2.1C30.3,110.1,30.5,110.8,30.6,111.5z"/>
		<path class="st3" d="M29.6,105c-0.1-0.9-0.1-1.7-0.2-2.6C29.5,103.3,29.5,104.2,29.6,105z"/>
		<path class="st3" d="M34.3,123.7c-0.2-0.5-0.4-1-0.6-1.5C33.9,122.7,34.1,123.2,34.3,123.7z"/>
		<path class="st3" d="M31.3,114.7c-0.2-0.6-0.3-1.3-0.4-1.9C31,113.4,31.2,114,31.3,114.7z"/>
		<path class="st3" d="M33.2,120.8c-0.2-0.5-0.4-1.1-0.5-1.6C32.8,119.7,33,120.2,33.2,120.8z"/>
		<path class="st3" d="M32.2,117.8c-0.2-0.6-0.3-1.2-0.5-1.7C31.8,116.6,32,117.2,32.2,117.8z"/>
	</g>
	<path class="st6" d="M63.7,98.3c7.6-9.6,19.3-15.8,32.4-15.8c0,0,0.1,0,0.1,0c14.1,0,25.6-11.5,25.6-25.6c0-3.4-0.7-6.7-1.9-9.7
		c-0.2,0-0.4,0-0.5,0C91.7,47.2,68,64,57.8,87.9C59.3,91.7,61.3,95.2,63.7,98.3z"/>
</g>
<g>
	<path class="st7" d="M345.8,54.8l-36.6,11.6l0,16l45.4-14.4c1.1-0.3,2.2,0.1,2.8,1l10,16.6l21.6,0L399,70.8l-18,0
		c-0.8,0-1.5-0.4-2-1l-3.7-5.7c-0.8-1.2-0.2-2.7,1.2-3.1l19.4-6.3l0-15.8l-30.6,9.7l-6-9.3c-0.8-1.3,0-3,1.6-3.2l35-4.7l0-14.9
		l-45.8,5.8c-0.9,0.1-1.8-0.3-2.3-1.1l-4.4-7.1l-18.8,0l4.6,8c0.8,1.3-0.1,2.9-1.7,3.1L308,27.5l0,15.4l29.8-3.9
		c0.9-0.1,1.9,0.3,2.3,1.1l7,11.6C347.8,52.9,347.2,54.3,345.8,54.8z"/>
	<path class="st7" d="M254.9,31.1h17v0l10.8,0c1.3,0,2.3,1,2.3,2.1l-0.1,29.3c0,1.2-1,2.1-2.3,2.1l-8.5,0c-1.3,0-2.3-1-2.3-2.1
		l0-19.9h-17l-0.2,94.9l30.4,0l16.9-15.7l0.2-106.1l-47.2-0.1L254.9,31.1z M282.5,121.9l-8.5,0c-1.3,0-2.3-1-2.3-2.1l0.1-37.3
		c0-1.2,1-2.1,2.3-2.1l8.5,0c1.3,0,2.3,1,2.3,2.1l-0.1,37.3C284.8,120.9,283.7,121.9,282.5,121.9z"/>
	<path class="st7" d="M381.8,106.5l15.7,0l0-15.5l-84-0.1l-8.2,15.5l13.5,0c1.5,0,2.6,1.3,2.2,2.7l-10.4,36l18.1,0l11.7-38.7l19.4,0
		c1.3,0,2.3,1,2.3,2.1l-0.1,36.6l27.9,0l10.2-14.8l-18.4,0c-1.3,0-2.3-1-2.3-2.1l0-19.7C379.5,107.4,380.6,106.5,381.8,106.5z"/>
	<path class="st7" d="M516.5,14.1L516.5,14.1L436.1,14l-0.2,131l14.3,0l0.1-36c0-1.2,1-2.1,2.3-2.1l57.9,0.1c1.3,0,2.3,1,2.3,2.1
		l0,18.7c0,1.2-1,2.1-2.3,2.1l-15.1,0l-9.6,15.2l42,0.1l0.2-131.1L516.5,14.1z M510.5,92.4l-57.4-0.1c-1.3,0-2.3-1-2.3-2.1l0-21.7
		c0-1.2,1-2.1,2.3-2.1l57.4,0.1c1.3,0,2.3,1,2.3,2.1l0,21.7C512.8,91.5,511.8,92.4,510.5,92.4z M512.9,52.2l-62-0.1l0-20.6
		c0-1.2,1-2.1,2.3-2.1l51.3,0.1l0,0l6.1,0c1.3,0,2.3,1,2.3,2.1L512.9,52.2z"/>
</g>
</svg>
